<svg width="144" height="14" viewBox="0 0 144 14" fill="none" xmlns="http://www.w3.org/2000/svg">
<g clip-path="url(#clip0_519_8645)">
<path d="M27.9557 12.8327C27.9557 12.7361 27.9557 12.5912 27.9557 12.4947C27.9012 12.4947 24.3586 12.6878 22.6145 12.6878C20.3255 12.6878 17.0553 12.6395 17.0553 12.6395L2.01273 12.543C2.01273 12.4947 2.01273 12.3015 2.01273 12.2532L17.1098 12.205C17.1098 12.205 20.38 12.2532 22.669 12.2532C24.4131 12.2532 27.9012 12.2532 27.9557 12.2532C27.9557 12.1084 27.9012 11.8669 27.9012 11.6737C27.8467 11.6737 24.3586 11.9152 22.669 11.9152C20.38 11.9152 17.1098 11.7703 17.1098 11.7703H13.2402L8.11695 11.6255H2.06723C2.06723 11.5772 2.12173 11.3841 2.12173 11.3357C2.33974 11.3841 2.50325 11.4323 3.26627 11.4323C4.24731 11.4323 4.68333 11.2392 4.68333 11.2392C4.68333 11.2392 5.39186 11.4323 6.31837 11.4323C6.7544 11.4323 7.73548 11.046 8.33496 11.1909C9.31604 11.4323 9.69751 11.046 9.69751 11.046C9.69751 11.046 9.91552 11.2875 10.3516 11.3841C10.6786 11.4323 11.1146 11.2392 11.1146 11.2392C11.1146 11.2392 11.6596 11.5772 13.2402 11.5772C15.1477 11.5772 15.6927 10.6597 15.6927 10.6597H15.7472C15.7472 10.6597 15.6927 10.9012 15.8017 11.0943C16.0197 11.4806 16.6193 11.5289 16.6193 11.5289C16.5648 10.4666 17.0553 9.74227 17.0553 9.74227H17.1098L17.0008 10.0319C16.7828 10.8046 17.1643 11.4806 17.1643 11.4806L17.3278 11.3841C17.3278 11.3841 17.1643 10.9012 17.3278 10.2251C17.4913 9.54911 17.7638 9.21105 17.7638 9.21105H17.8728C17.8728 9.21105 17.7093 9.74227 17.7093 10.1285C17.7093 10.4666 17.9273 11.2875 18.6359 11.5289C19.1809 11.7221 19.6169 11.2875 19.6169 11.2875C19.6169 11.2875 20.8159 11.5772 21.797 11.5772C24.1406 11.5772 24.6856 11.2392 24.6856 11.2392C24.6856 11.2392 24.8491 11.4806 26.0481 11.4806C26.7566 11.4806 27.3017 11.4323 27.6287 11.3841C27.7377 11.3841 27.7922 11.3841 27.8467 11.3357C27.8467 11.1426 27.7922 10.9977 27.7377 10.8046C27.0837 7.56926 24.9581 4.76856 22.015 2.9819L21.8515 3.4165C24.7401 5.10658 26.8657 7.76242 27.4652 10.9012C27.1382 10.9977 26.6477 11.1426 26.0481 11.1426C25.1216 11.1426 24.9036 10.9012 24.9036 10.9012C24.9036 10.9012 24.5766 11.0943 23.9771 11.0943C23.4321 11.0943 23.0505 10.7563 23.0505 10.7563C23.0505 10.7563 22.5055 11.2392 21.5245 11.2392C20.38 11.2392 19.7804 10.6114 19.5624 10.3217C19.3444 10.0319 19.2354 9.79053 19.2354 9.79053H19.1809C19.1809 9.88711 19.2354 10.0319 19.2899 10.1768C19.4534 10.5632 19.5624 10.6597 19.6169 10.7563C19.6714 10.8046 19.7259 10.9494 19.5624 10.9977C19.4534 11.046 19.3989 10.9494 19.3444 10.9012C19.2899 10.8046 19.0719 10.5632 18.9629 10.1768C18.7994 9.74227 18.7994 9.45253 18.7449 9.21105H18.6359C18.5814 9.40421 18.5814 9.74227 18.5814 10.1285C18.6359 10.5632 18.7449 10.8528 18.7994 10.9494C18.7994 10.9494 18.8539 10.9977 18.8539 11.046C18.8539 11.1909 18.7449 11.2392 18.6359 11.2392C18.5269 11.2392 18.4179 11.1426 18.3634 11.046C17.8728 10.3217 18.4724 8.87305 18.6359 8.43847C18.9083 7.81074 18.9629 7.18295 18.9629 7.18295C18.9629 7.18295 19.2899 6.7001 19.4534 6.36205C19.6714 5.92748 19.8349 5.54118 19.9984 5.39631C20.2164 5.20316 20.5979 4.72028 20.9794 4.09253C21.0339 3.99596 21.361 3.31992 21.4155 3.17506C21.47 3.07848 21.5245 2.93362 21.579 2.83704C21.7425 2.25758 21.906 1.58155 21.906 1.48498C21.906 1.34011 21.6335 1.24353 21.6335 1.24353C21.6335 1.24353 21.361 1.14696 21.1975 1.14696C21.0885 1.14696 20.9794 1.24353 20.8704 1.29182C20.7069 1.34011 20.6524 1.29182 20.6524 1.29182C20.6524 1.29182 20.4344 1.19524 20.3255 1.24353C20.2164 1.24353 20.1074 1.3884 19.9984 1.3884C19.8349 1.43669 19.7804 1.43669 19.7804 1.43669C19.7804 1.43669 19.6169 1.3884 19.5079 1.3884C19.3989 1.43669 19.2899 1.48498 19.0719 1.62984C17.5458 1.14696 15.9652 0.905518 14.3302 0.905518C6.86341 0.905518 0.759181 6.21721 0.650177 12.8327C0.650177 12.881 0.650177 13.1707 0.650177 13.1707H27.9557C27.9557 13.1707 27.9557 12.881 27.9557 12.8327ZM10.5696 10.4183C10.5151 10.4183 10.5696 10.37 10.5151 10.37C10.8966 9.30763 11.7686 7.13468 13.1857 5.49289C13.3492 5.54118 13.4582 5.63775 13.6217 5.68604C12.5861 6.7001 11.2236 8.6799 10.5696 10.4183ZM11.3871 10.7563C11.6596 9.79053 12.3681 7.76242 13.8942 5.8309C14.0577 5.92748 14.1667 5.97577 14.3302 6.07237C13.2947 7.27952 12.0411 9.21105 11.4961 10.8046C11.4416 10.8046 11.4416 10.7563 11.3871 10.7563ZM12.4772 10.9977C12.4227 10.9977 12.4772 10.9977 12.4227 10.9977C12.6406 10.2251 13.2402 8.197 14.6572 6.21721C14.8207 6.31379 14.9297 6.36205 15.0387 6.45863C14.0577 7.76242 12.9676 9.54911 12.4772 10.9977ZM13.5127 10.9977C13.4582 10.9977 13.4582 10.9977 13.4582 10.9977C13.6762 10.2734 14.1667 8.48674 15.3658 6.7001C15.5293 6.79668 15.6927 6.89326 15.7472 6.98984C14.8752 8.14874 13.9487 9.69395 13.5127 10.9977ZM17.1098 7.76242C16.8373 7.76242 16.4558 7.66584 16.3468 7.47268C16.4013 7.81074 16.8373 8.10042 17.2188 8.10042C17.1098 8.10042 17.0553 8.14874 16.9463 8.14874C16.4558 8.14874 16.0197 7.76242 16.0197 7.32784C16.0197 7.27952 16.0197 7.18295 16.0197 7.13468C16.4013 7.42442 17.2188 7.81074 17.7093 7.23126V7.27952C17.6548 7.521 17.3823 7.76242 17.1098 7.76242ZM18.6359 5.87919C18.6359 6.02406 18.5269 6.07237 18.4179 6.12063C18.3634 6.16895 18.1999 6.21721 18.1999 6.26547H18.1453C18.1453 6.26547 18.0908 6.21721 18.0363 6.21721C18.0363 6.16895 18.0363 6.16895 18.0363 6.16895V6.12063V6.02406C18.0363 6.02406 17.9818 5.92748 18.0363 5.8309C18.0363 5.68604 18.1999 5.58947 18.1999 5.58947H18.2544C18.2544 5.58947 18.1999 5.68604 18.1453 5.78262C18.1453 5.8309 18.0908 5.97577 18.1453 6.07237V6.16895L18.1999 6.21721L18.2544 6.16895C18.3634 6.12063 18.3634 6.07237 18.3634 6.07237C18.3634 6.07237 18.2544 5.97577 18.3089 5.87919C18.3634 5.78262 18.5269 5.78262 18.5269 5.78262C18.5814 5.63775 18.5269 5.54118 18.5269 5.54118L18.6359 5.58947C18.5814 5.54118 18.6359 5.68604 18.6359 5.87919ZM19.3444 1.7747C19.5079 1.72641 19.5624 1.62984 19.7259 1.58155C19.8894 1.53326 19.9984 1.58155 20.1074 1.58155C20.2164 1.58155 20.38 1.43669 20.4889 1.43669C20.5979 1.43669 20.6524 1.48498 20.7614 1.48498C20.8159 1.58155 21.143 1.3884 21.1975 1.3884C21.252 1.3884 21.47 1.3884 21.4155 1.58155C21.361 1.72641 21.252 2.16101 21.0339 2.74047C20.9794 2.88533 20.8704 3.07848 20.7614 3.27164C20.6524 3.46479 20.5434 3.70623 20.38 3.89938C19.7804 4.76856 19.1809 4.57541 18.0363 5.0583C17.1098 5.4446 16.7283 5.68604 16.6193 5.8309C16.5103 5.73433 16.4558 5.73433 16.3468 5.68604C16.5103 5.54118 16.8918 5.29973 17.6548 4.96172C18.4724 4.57541 19.8349 4.09253 20.1074 3.65794C20.1074 3.60965 20.1074 3.60965 20.1074 3.56136C19.7804 3.75452 19.5079 3.85109 19.3989 3.94767C18.0908 4.52713 17.6003 4.67199 17.0008 4.96172C16.7283 5.10658 16.2923 5.29973 16.0197 5.49289C15.9652 5.4446 15.8562 5.39631 15.8017 5.34802C16.0743 5.15487 16.4558 4.96172 16.8373 4.76856C17.4368 4.52713 17.9273 4.28568 19.3444 3.56136C19.4534 3.51307 20.1619 3.12677 20.7069 2.74047C20.7069 2.69218 20.7069 2.64389 20.7614 2.5956C20.271 2.83704 18.6904 3.60965 18.3634 3.75452C17.0553 4.33397 17.1098 4.28568 16.5103 4.57541C16.1288 4.76856 15.7472 4.96172 15.4748 5.15487C15.4203 5.10658 15.3113 5.0583 15.2567 5.01001C15.5838 4.81685 15.8562 4.6237 16.2923 4.43055C16.8918 4.14082 16.9463 4.09253 18.3089 3.51307C18.9629 3.22335 20.1619 2.49902 20.8159 2.16101C20.8159 2.11272 20.8159 2.11272 20.8159 2.06443C20.1619 2.40245 18.2544 3.27164 17.9818 3.4165C16.6738 3.94767 16.5103 3.99596 15.9107 4.28569C15.5838 4.43055 15.2567 4.6237 14.9842 4.76856C14.9297 4.72028 14.8752 4.67199 14.8207 4.6237C15.0387 4.47884 15.4203 4.2374 15.9107 3.99596C16.5103 3.70623 16.6193 3.65794 17.9273 3.07848C18.0908 3.03019 18.7449 2.69218 19.3444 2.35416C19.5079 2.25758 19.7259 2.16101 19.8894 2.06443C20.0529 1.96786 20.1619 1.87128 20.271 1.82299L20.2164 1.7747C19.9439 1.87128 19.5624 2.06443 19.4534 2.11272C18.7449 2.45074 17.8728 2.83704 17.6003 2.93362C16.2923 3.51307 16.1288 3.56136 15.5293 3.85109C15.2022 3.99596 14.8207 4.18911 14.6027 4.38226C14.5482 4.33397 14.4937 4.28568 14.4392 4.2374C14.7117 4.04424 15.0932 3.80281 15.5293 3.60965C16.1288 3.31992 16.2378 3.27164 17.5458 2.69218C17.7638 2.5956 17.9818 2.49902 18.1453 2.40245C18.1999 2.40245 18.7994 2.11272 19.3444 1.7747ZM14.8752 1.48498C16.1288 1.48498 17.3823 1.62984 18.5269 1.96786C18.3089 2.11272 17.9818 2.25758 17.5458 2.45074C16.0197 3.12677 15.8562 3.17506 15.2022 3.46479C14.7662 3.65794 14.4392 3.85109 14.1667 4.04424C14.1667 4.04424 13.8942 3.70623 13.7307 3.60965C13.5672 3.51307 13.1857 3.4165 13.0766 3.36821C12.8586 3.27164 12.8041 3.17506 12.4772 3.07848C12.2046 2.9819 11.9866 3.03019 11.8231 3.03019C11.6596 2.9819 11.4961 2.93362 11.2236 2.93362C11.0601 2.93362 10.8421 3.03019 10.6786 3.03019C10.4606 3.03019 10.2971 2.9819 10.1335 2.9819C9.97003 3.03019 9.75201 3.17506 9.53399 3.17506C9.37048 3.22335 9.15252 3.17506 9.04352 3.17506C8.93451 3.22335 8.66199 3.4165 8.49847 3.46479C8.38947 3.51307 8.06244 3.51307 8.11695 3.75452C8.11695 3.94767 8.60748 3.99596 8.60748 3.99596C8.60748 3.99596 10.7331 4.2374 12.8041 5.20316C12.5316 5.54118 12.2046 5.87919 11.9866 6.26547C11.8231 6.21721 11.6051 6.16895 11.4961 6.16895C11.2781 6.16895 11.0601 6.26547 10.8966 6.21721C10.5696 6.21721 10.5696 6.16895 10.188 6.21721C9.91552 6.26547 9.91552 6.31379 9.69751 6.36205C9.53399 6.41037 9.37048 6.36205 9.09802 6.41037C8.98901 6.45863 8.771 6.65179 8.60748 6.7001C8.49847 6.74837 8.28046 6.74837 8.11695 6.84495C8.00794 6.94152 8.00794 7.0381 7.73548 7.13468C7.57196 7.23126 7.46295 7.18295 7.29944 7.32784C7.19043 7.521 7.19043 7.66584 6.91791 7.859C6.59089 8.10042 6.59089 8.29358 6.64539 8.3419C6.7544 8.53505 7.24494 8.3419 7.24494 8.3419C7.24494 8.3419 8.98901 7.81074 11.0601 7.71416C10.5151 8.6799 10.079 9.59737 9.80651 10.2251C9.75201 10.37 9.69751 10.5148 9.643 10.6114C9.5885 10.6114 9.5885 10.6114 9.5885 10.6114C9.47949 10.5148 9.47949 10.37 9.53399 10.0319C9.5885 9.69395 9.91552 9.0179 10.0245 8.87305H9.91552C9.80651 9.0179 9.47949 9.54911 9.42498 9.64569C9.31604 9.83885 9.26153 9.88711 9.04352 10.3217C8.98901 10.4183 8.88 10.6114 8.71649 10.6114C8.60748 10.6114 8.49847 10.5632 8.49847 10.4666C8.49847 10.4183 8.55298 10.3217 8.60748 10.3217C8.88 9.93537 9.09802 9.54911 9.15252 9.35595H9.04352C9.04352 9.35595 8.28046 10.9012 6.64539 10.9012C6.10039 10.9012 5.50086 10.6597 5.50086 10.6597C5.50086 10.6597 4.73783 10.9494 3.7023 10.9494C2.88476 10.9494 2.39424 10.8046 2.17623 10.7563C3.32078 5.54118 8.38947 1.48498 14.8752 1.48498Z" fill="#D9EFDE" fill-opacity="0.8"/>
<path d="M52.6994 12.8809L52.5904 12.8327C51.9363 12.5429 51.7183 11.722 51.3914 10.9977L48.0667 3.17505H44.9056V3.41649L45.0691 3.46478C45.0691 3.46478 45.2326 3.51307 45.2871 3.56135C45.4506 3.65793 45.6141 3.85108 45.3961 4.33397C45.3961 4.5754 45.2871 4.76856 45.2871 4.76856L42.671 10.9977C42.3985 11.6738 42.1805 12.5429 41.5265 12.8327L41.3085 12.9293V13.1707H44.8511V12.9293L44.5786 12.8327C44.2516 12.7361 44.1971 12.4464 44.5241 11.6255L44.9056 10.5148H48.6662C48.7752 10.7563 48.8842 11.0943 49.0477 11.5772C49.2113 12.06 49.4838 12.6878 49.1023 12.8809L48.8842 12.9775V13.219H52.6994V12.8809ZM48.1212 8.87303H45.6141L46.8677 5.78261L48.1212 8.87303Z" fill="#D9EFDE" fill-opacity="0.8"/>
<path d="M75.7 3.17505V3.41649L75.9725 3.51307C76.4085 3.65793 76.354 4.5754 76.354 5.15486V11.1909C76.354 11.6738 76.354 12.6878 75.9725 12.8327L75.7 12.9293V13.1707H79.2966V12.9293L79.0241 12.8327C78.5881 12.6878 78.6426 11.6738 78.6426 11.1909V5.15486C78.6426 4.33397 78.7516 3.60964 79.0241 3.51307L79.2966 3.41649V3.17505H75.7Z" fill="#D9EFDE" fill-opacity="0.8"/>
<path d="M62.1824 3.17505V3.41649L62.4549 3.51307C62.891 3.65793 62.8364 4.5754 62.8364 5.15486V11.1909C62.8364 11.6738 62.8364 12.6878 62.4549 12.8327L62.1824 12.9293V13.1707H65.7797V12.9293L65.5072 12.8327C65.0711 12.6878 65.1256 11.6738 65.1256 11.1909V5.15486C65.1256 4.33397 65.2346 3.60964 65.5072 3.51307L65.7797 3.41649V3.17505H62.1824Z" fill="#D9EFDE" fill-opacity="0.8"/>
<path d="M41.9632 2.30594C41.1457 1.58162 39.8921 1.19531 38.5295 1.19531H33.8969V1.43676L34.1149 1.48504C34.7144 1.72648 34.6599 3.03026 34.6599 3.99602V10.3217V10.5632C34.6599 11.2875 34.6599 12.5913 34.1149 12.7845L33.8969 12.8811V13.1225H38.1481V12.8811L37.9845 12.7845C37.2215 12.3498 37.2215 11.3841 37.2215 10.3701V8.24537L37.6575 8.39027C37.6575 8.39027 38.366 8.63169 39.0201 8.63169C40.9822 8.63169 43.1077 7.42447 43.1077 4.81692C43.1077 3.85116 42.7262 2.98197 41.9632 2.30594ZM37.821 7.71421L37.4395 7.76247H37.2215V3.27171C37.494 3.22342 37.821 3.22342 38.257 3.22342C39.1291 3.22342 39.8376 3.41657 40.2191 3.80287C40.6006 4.14089 40.7641 4.57548 40.7641 5.20323C40.7641 6.70016 39.2381 7.61763 37.821 7.71421Z" fill="#D9EFDE" fill-opacity="0.8"/>
<path d="M99.8993 1.1954H97.9916H92.5412V1.48513L92.8682 1.58171C93.3588 1.77486 93.3588 2.88548 93.3588 3.51323V10.7565C93.3588 11.3359 93.3588 12.5431 92.8682 12.7363L92.5412 12.8328V13.1226H96.629V12.8328L96.302 12.7363C95.8114 12.5431 95.8114 11.3842 95.8114 10.7565V8.39031H98.2096C98.2096 8.39031 99.2452 8.29373 99.4087 8.68004L99.4632 8.82494L99.7357 8.8732L99.8993 5.68619H99.5177L99.4632 5.87935C99.3542 6.12078 98.4276 6.21736 98.1551 6.16909H95.7569C95.7569 5.10674 95.7569 3.80296 95.7569 3.2235H98.7002C99.4087 3.2235 99.7902 3.36837 99.8993 3.70639L99.9532 3.89953H100.28L101.043 1.05054C101.152 1.14711 100.171 1.1954 99.8993 1.1954Z" fill="#D9EFDE" fill-opacity="0.8"/>
<path d="M60.9833 10.4665L60.9288 10.5148C60.8198 10.6114 60.7108 10.6597 60.7108 10.6597C60.0567 11.046 58.9667 11.4806 57.8769 11.4806C57.0049 11.4806 56.2963 11.2392 55.6968 10.7563C54.9883 10.1285 54.6067 9.11448 54.6067 7.95558C54.6067 6.12063 55.8058 4.86512 57.5499 4.86512C58.3674 4.86512 59.1847 5.10656 60.0022 5.58944L60.2203 5.7343L60.6563 5.97575V5.54115V3.56134V3.36819L60.3293 3.3199C59.2392 3.07846 58.3674 2.93359 57.6044 2.93359C56.0783 2.93359 54.7703 3.41647 53.7892 4.28566C52.7537 5.20313 52.1542 6.60347 52.1542 8.14869C52.1542 9.74222 52.6992 11.046 53.7347 11.9635C54.7703 12.881 56.2963 13.3639 58.0404 13.3639C58.9124 13.3639 59.7297 13.219 60.3838 12.881H60.4383L60.5473 12.8326L60.6018 12.7361L61.3648 10.4183H60.9833V10.4665Z" fill="#D9EFDE" fill-opacity="0.8"/>
<path d="M88.8343 10.4665L88.5073 10.6597C87.8532 11.046 86.7632 11.4806 85.6731 11.4806C84.801 11.4806 84.0925 11.2392 83.4929 10.7563C82.7844 10.1285 82.4028 9.11448 82.4028 7.95558C82.4028 6.12063 83.6019 4.86512 85.3461 4.86512C86.1636 4.86512 86.9812 5.10656 87.7987 5.58944L88.4528 5.97575V3.56134V3.36819L88.1803 3.3199C87.0902 3.07846 86.2181 2.93359 85.4551 2.93359C83.9289 2.93359 82.6209 3.41647 81.6398 4.28566C80.6042 5.20313 80.0047 6.60347 80.0047 8.14869C80.0047 9.74222 80.5497 11.046 81.5853 11.9635C82.6208 12.881 84.147 13.3639 85.8911 13.3639C86.7632 13.3639 87.5807 13.219 88.2348 12.881L88.3983 12.8326L89.2158 10.4183H88.8343V10.4665Z" fill="#D9EFDE" fill-opacity="0.8"/>
<path d="M73.7917 3.17519H70.7946H67.1973V3.41663L67.4698 3.5132C67.9059 3.65807 67.8514 4.57554 67.8514 5.155V11.191C67.8514 11.6739 67.8514 12.6879 67.4698 12.8328L67.1973 12.9294V13.1708H70.7946V12.9294L70.5221 12.8328C70.086 12.6879 70.1405 11.6739 70.1405 11.191V9.2112H72.1027C72.1027 9.2112 72.9742 9.16294 73.0832 9.45262L73.1377 9.59752L73.3557 9.64578L73.5192 6.98993H73.2467L73.1922 7.13483C73.1377 7.32799 72.3207 7.42457 72.1027 7.37625H70.086C70.086 6.50709 70.086 5.39644 70.086 4.91356H72.7561C73.3557 4.91356 73.6827 5.05843 73.7917 5.29986L73.8462 5.44473H74.1187L74.7728 3.07861C74.8818 3.07861 74.0097 3.17519 73.7917 3.17519Z" fill="#D9EFDE" fill-opacity="0.8"/>
<path d="M120.009 3.17524V3.41668L120.227 3.51326C120.718 3.80299 120.772 4.23758 120.772 5.05848V9.64584C119.246 7.71431 115.868 3.12695 115.868 3.12695H113.251V3.3684L113.47 3.46497C113.96 3.7547 114.015 4.23758 114.015 5.05848V11.0462C114.015 11.8671 114.015 12.4948 113.47 12.7846L113.306 12.8812V13.1226H116.631V12.8812L116.413 12.7846C115.922 12.688 115.922 11.8671 115.922 11.0462V6.70026L119.192 10.8531C119.791 11.6257 120.772 12.7363 121.808 13.026C122.626 13.2675 122.789 13.2192 122.789 13.2192V5.10677C122.789 4.28587 122.789 3.80299 123.334 3.51326L123.552 3.41668V3.17524H120.009Z" fill="#D9EFDE" fill-opacity="0.8"/>
<path d="M133.417 4.62389C132.327 3.65812 130.692 3.12695 128.676 3.12695H124.588V3.3684L124.806 3.41668L124.915 3.46497C125.405 3.60983 125.296 4.62389 125.296 5.15506V11.1911C125.296 11.9154 125.296 12.5432 124.697 12.8812L124.533 12.9777V13.1709H128.567C132.272 13.1709 134.889 11.0945 134.889 8.10063C134.889 6.70026 134.398 5.49307 133.417 4.62389ZM131.509 10.6599C130.746 11.2876 129.711 11.6739 128.403 11.6739C128.131 11.6739 127.967 11.6257 127.64 11.5774V4.81704C128.076 4.72046 128.294 4.67217 128.676 4.67217C129.929 4.67217 130.855 4.9619 131.509 5.54136C132.163 6.12084 132.49 7.08657 132.49 8.24547C132.49 9.21126 132.109 10.0804 131.509 10.6599Z" fill="#D9EFDE" fill-opacity="0.8"/>
<path d="M111.234 11.3357V5.05829C111.234 4.33397 111.234 3.65793 111.779 3.51307L111.997 3.46478L111.834 3.17505H108.128V3.41649L108.346 3.46478C108.891 3.65793 108.836 4.43054 108.836 4.96171V9.74225C108.836 10.2251 108.836 10.4666 108.564 10.8046C108.128 11.3357 107.31 11.6738 106.438 11.6738C105.73 11.6738 105.239 11.5289 104.858 11.1909C104.367 10.8046 104.149 10.0802 104.149 9.16277V4.91342C104.149 4.33397 104.149 3.56135 104.64 3.41649L104.858 3.3682V3.17505H101.043V3.41649L101.261 3.46478C101.751 3.60964 101.806 4.52712 101.751 5.25144V9.35593C101.751 10.37 101.751 11.384 102.678 12.3015C103.441 13.0258 104.585 13.4121 105.893 13.4121C106.819 13.4121 107.964 12.9775 108.782 12.3981V13.1707H111.888V12.9293L111.67 12.8809C111.234 12.6878 111.18 12.06 111.234 11.3357Z" fill="#D9EFDE" fill-opacity="0.8"/>
<path d="M143.064 10.1286C143.064 10.9012 142.683 11.6738 141.974 12.2533C141.156 12.9776 140.012 13.3639 138.758 13.3639C137.777 13.3639 136.851 13.219 135.979 12.9293H135.924L135.815 12.881V12.7844V12.7361L135.379 10.9495L135.325 10.6598L135.27 10.4183H135.543L135.924 10.8046C136.742 11.4806 137.886 11.7704 138.922 11.7704C139.63 11.7704 140.666 11.3358 140.666 10.6114C140.666 9.79054 139.794 9.40428 138.649 8.92138C137.287 8.3419 135.652 7.61759 135.652 5.78265C135.652 3.70626 137.832 2.98193 139.685 2.98193C140.502 2.98193 141.265 3.07851 141.974 3.31995H142.029L142.192 3.36824V3.5131V3.56139V4.81688V5.25148V5.54121L141.81 5.29976L141.429 5.10661C141.102 4.91346 140.284 4.62373 139.576 4.62373C139.303 4.62373 138.704 4.67202 138.322 5.01004C138.159 5.1549 138.05 5.34805 138.05 5.63778C138.05 6.36211 139.031 6.79669 140.066 7.23127C141.374 7.81075 143.064 8.53506 143.064 10.1286Z" fill="#D9EFDE" fill-opacity="0.8"/>
</g>
<defs>
<clipPath id="clip0_519_8645">
<rect width="143" height="13" fill="white" transform="translate(0.357147 0.634766)"/>
</clipPath>
</defs>
</svg>
