<svg width="121" height="24" viewBox="0 0 121 24" fill="none" xmlns="http://www.w3.org/2000/svg">
<g clip-path="url(#clip0_519_8670)">
<path fill-rule="evenodd" clip-rule="evenodd" d="M10.7091 16.4312L14.0499 19.8447L11.263 22.8131C10.3592 23.7757 8.89371 23.7757 7.98998 22.8131L1.03497 15.4056C0.131246 14.4427 0.131246 12.8822 1.03497 11.9197C1.93899 10.9571 3.40422 10.9571 4.30795 11.9197L9.62647 17.5842L10.7091 16.4312ZM11.5775 15.5062L14.5365 12.3547L17.8092 15.8406L15.0845 18.7427L11.5775 15.5062Z" fill="#D9EFDE"/>
<path fill-rule="evenodd" clip-rule="evenodd" d="M24.9657 18.6773L21.4785 15.4195L29.6732 6.69162C30.5769 5.72909 32.0422 5.72909 32.9462 6.69162C33.8499 7.65415 33.8499 9.21472 32.9462 10.1776L24.9657 18.6773ZM23.8812 19.8324L21.0826 22.8131C20.1785 23.7756 18.7133 23.7756 17.8096 22.8131L5.94483 10.1763C5.0411 9.21349 5.0411 7.65292 5.94483 6.69039C6.84855 5.72755 8.31379 5.72755 9.2178 6.69039L19.4461 17.5842L20.5965 16.3589L23.8812 19.8324Z" fill="#D9EFDE"/>
<path fill-rule="evenodd" clip-rule="evenodd" d="M19.9373 14.6202L23.1948 11.1181L29.2658 17.5841L34.5832 11.9208C35.4872 10.9583 36.9525 10.9583 37.8562 11.9208C38.7599 12.8836 38.7599 14.4442 37.8562 15.4067L30.9023 22.813C29.9986 23.7756 28.5334 23.7756 27.6296 22.813L19.9373 14.6202ZM18.5878 13.1829L10.8548 4.94677C9.9511 3.98424 9.9511 2.42367 10.8548 1.46114C11.7588 0.498304 13.2241 0.498304 14.1278 1.46114L21.8688 9.70583L18.5878 13.1829Z" fill="#D9EFDE"/>
<path fill-rule="evenodd" clip-rule="evenodd" d="M28.0364 1.46238C27.1327 0.499846 25.6675 0.499846 24.7634 1.46238L14.5363 12.3549L17.8093 15.8409L28.0364 4.94831C28.9401 3.98547 28.9401 2.42491 28.0364 1.46238Z" fill="#D9EFDE"/>
<path fill-rule="evenodd" clip-rule="evenodd" d="M50.5148 3.16477H47.6688V20.9701H58.0965V18.2812H50.5148V3.16477ZM64.2559 8.5185C65.9862 8.5185 67.1474 9.26947 67.7849 10.19L67.9215 8.76075H70.3804V20.9701H67.9215L67.7849 19.5409C67.1474 20.4614 65.9862 21.2124 64.2559 21.2124C61.1367 21.2124 59.0193 18.5234 59.0193 14.8654C59.0193 11.1832 61.1367 8.5185 64.2559 8.5185ZM64.8478 11.0863C63.0719 11.0863 61.7969 12.5641 61.7969 14.8654C61.7969 17.1668 63.0719 18.6445 64.8478 18.6445C66.2139 18.6445 67.0336 17.8693 67.6483 16.8277V12.9032C67.0336 11.8615 66.2139 11.0863 64.8478 11.0863ZM77.2684 4.66672H74.5362V8.76075H72.3733V11.2317H74.5362V16.6581C74.5362 19.6135 76.1983 21.2124 78.8166 21.2124C79.955 21.2124 80.7974 20.8732 81.3666 20.4856L80.638 18.2085C80.2965 18.4265 79.7956 18.5961 79.067 18.5961C77.997 18.5961 77.2684 17.8693 77.2684 16.6339V11.2317H80.7291V8.76075H77.2684V4.66672ZM86.6836 4.66672H83.9514V8.76075H81.7885V11.2317H83.9514V16.6581C83.9514 19.6135 85.6135 21.2124 88.2318 21.2124C89.3702 21.2124 90.2126 20.8732 90.7818 20.4856L90.0532 18.2085C89.7117 18.4265 89.2108 18.5961 88.4822 18.5961C87.4121 18.5961 86.6836 17.8693 86.6836 16.6339V11.2317H90.1443V8.76075H86.6836V4.66672ZM95.3474 8.76075H92.6153V20.9701H95.3474V8.76075ZM93.9813 3.06787C93.0251 3.06787 92.2965 3.81885 92.2965 4.86052C92.2965 5.9022 93.0251 6.65317 93.9813 6.65317C94.9603 6.65317 95.6889 5.9022 95.6889 4.86052C95.6889 3.81885 94.9603 3.06787 93.9813 3.06787ZM103.601 8.5185C100.072 8.5185 97.7273 11.1832 97.7273 14.8654C97.7273 18.5234 100.095 21.2124 103.624 21.2124C105.696 21.2124 107.267 20.2192 108.292 18.5234L106.334 16.9003C105.787 17.8693 104.899 18.6688 103.647 18.6688C101.621 18.6688 100.505 16.9972 100.505 14.8654C100.505 12.7094 101.575 11.0621 103.624 11.0621C104.899 11.0621 105.742 11.8373 106.265 12.8063L108.246 11.2075C107.222 9.51172 105.696 8.5185 103.601 8.5185ZM114.975 8.5185C118.504 8.5185 120.234 11.3286 120.234 14.7443V15.7618H112.129C112.197 17.6998 113.29 18.7657 115.202 18.7657C116.546 18.7657 117.525 18.1358 118.048 17.3606L119.938 19.0079C118.8 20.4614 117.297 21.2124 115.18 21.2124C111.628 21.2124 109.351 18.5476 109.351 14.8897C109.351 11.2075 111.673 8.5185 114.975 8.5185ZM114.929 10.8441C113.313 10.8441 112.22 11.9827 112.129 13.6784H117.547C117.479 12.0069 116.568 10.8441 114.929 10.8441Z" fill="#D9EFDE" fill-opacity="0.8"/>
</g>
<defs>
<clipPath id="clip0_519_8670">
<rect width="120" height="22.8" fill="white" transform="translate(0.357178 0.734863)"/>
</clipPath>
</defs>
</svg>
