<svg width="68" height="22" viewBox="0 0 68 22" fill="none" xmlns="http://www.w3.org/2000/svg">
<g clip-path="url(#clip0_519_8634)">
<path d="M16.9861 21.6347L54.2397 18.2339H13.7571L16.9861 21.6347Z" fill="#D9EFDE" fill-opacity="0.8"/>
<path d="M62.877 4.20557C62.1127 4.22437 61.3699 4.47532 60.7378 4.92824V4.46063H58.2354V16.0234H60.7378V9.26427C60.7202 8.96814 60.7604 8.67136 60.8559 8.39221C60.9514 8.11306 61.1001 7.85748 61.293 7.64121C61.4859 7.42495 61.7187 7.25259 61.9773 7.13477C62.2358 7.01695 62.5146 6.95617 62.7963 6.95617C63.078 6.95617 63.3567 7.01695 63.6153 7.13477C63.8738 7.25259 64.1067 7.42495 64.2996 7.64121C64.4924 7.85748 64.6412 8.11306 64.7367 8.39221C64.8322 8.67136 64.8723 8.96814 64.8547 9.26427V16.0659H67.3571V9.26427C67.3571 6.4586 65.5408 4.20557 62.877 4.20557Z" fill="#D9EFDE" fill-opacity="0.8"/>
<path d="M52.4639 4.16309C49.5578 4.16309 47.4994 6.84122 47.4994 10.242C47.4994 13.8129 50.0825 16.321 52.706 16.321C54.0379 16.321 55.6928 15.8534 57.1054 13.7279L54.8855 12.3675C53.1904 15.0032 50.3247 13.6854 50.0018 11.0072H57.1861C57.8319 6.92624 55.2892 4.16309 52.4639 4.16309ZM50.1632 8.75418C50.6879 6.07604 54.159 5.906 54.6434 8.75418H50.1632Z" fill="#D9EFDE" fill-opacity="0.8"/>
<path d="M41.7843 12.6275C41.762 13.1574 41.8414 13.6866 42.0175 14.1835C42.1937 14.6804 42.4631 15.1348 42.8097 15.5196C43.1562 15.9045 43.5728 16.2119 44.0346 16.4234C44.4964 16.635 44.994 16.7464 45.4975 16.751C46.3483 16.7196 47.1792 16.4717 47.9192 16.0283L46.3048 13.7328C46.0569 13.9191 45.7616 14.0227 45.4572 14.0304C45.2909 14.0254 45.1273 13.9844 44.9767 13.9099C44.8261 13.8354 44.6917 13.729 44.5819 13.5974C44.472 13.4658 44.3892 13.3117 44.3384 13.1449C44.2876 12.978 44.27 12.8019 44.2867 12.6275V7.65385H46.4258V4.89069H44.2867V2H41.7843V4.89069H40.4524V7.65385H41.7843V12.6275Z" fill="#D9EFDE" fill-opacity="0.8"/>
<path d="M35.3506 16.321C36.1149 16.3022 36.8577 16.0513 37.4898 15.5983V16.0234H39.9922V4.46069H37.4898V11.2623C37.5074 11.5584 37.4672 11.8552 37.3717 12.1344C37.2763 12.4135 37.1275 12.6691 36.9346 12.8854C36.7417 13.1016 36.5089 13.274 36.2503 13.3918C35.9918 13.5096 35.713 13.5704 35.4313 13.5704C35.1496 13.5704 34.8709 13.5096 34.6123 13.3918C34.3538 13.274 34.1209 13.1016 33.928 12.8854C33.7352 12.6691 33.5864 12.4135 33.4909 12.1344C33.3954 11.8552 33.3553 11.5584 33.3729 11.2623V4.46069H30.8705V11.2623C30.8705 14.068 32.6867 16.321 35.3506 16.321Z" fill="#D9EFDE" fill-opacity="0.8"/>
<path d="M23.9685 11.3048L27.6817 16.0659H31.1528L26.1884 9.90197L30.4667 4.46068H26.9956L23.9685 8.49914V0.634766H21.4257V16.0659H23.9685V11.3048Z" fill="#D9EFDE" fill-opacity="0.8"/>
<path d="M17.5108 15.5133V16.0234H20.0132V4.46066H17.5108V4.97078C16.8288 4.45247 16.0108 4.17022 15.1698 4.16309C12.3445 4.16309 10.165 6.88373 10.165 10.242C10.165 13.6003 12.3042 16.321 15.1698 16.321C16.0118 16.3205 16.8317 16.0376 17.5108 15.5133ZM12.7078 10.2845C12.7078 8.45661 13.7168 7.01126 15.1295 7.01126C16.5421 7.01126 17.5108 8.45661 17.5108 10.2845C17.5108 12.1125 16.5421 13.5578 15.1295 13.5578C13.7168 13.5578 12.7078 12.1125 12.7078 10.2845Z" fill="#D9EFDE" fill-opacity="0.8"/>
<path d="M9.35775 6.54375C9.35668 5.22499 8.85881 3.96057 7.97344 3.02807C7.08807 2.09557 5.88756 1.57119 4.63546 1.57007H0.357147V16.0235H2.98064V11.5599H4.79691L7.98546 16.0235H11.2547L7.38004 10.6247C7.99838 10.1636 8.50133 9.55137 8.84578 8.8406C9.19022 8.12984 9.3659 7.3417 9.35775 6.54375ZM4.67582 8.8393H2.98064V4.33323H4.67582C5.24316 4.33323 5.78726 4.5706 6.18843 4.99313C6.5896 5.41565 6.81498 5.98872 6.81498 6.58626C6.81498 7.18381 6.5896 7.75687 6.18843 8.1794C5.78726 8.60193 5.24316 8.8393 4.67582 8.8393Z" fill="#D9EFDE" fill-opacity="0.8"/>
</g>
<defs>
<clipPath id="clip0_519_8634">
<rect width="67" height="21" fill="white" transform="translate(0.357147 0.634766)"/>
</clipPath>
</defs>
</svg>
