<svg width="63" height="21" viewBox="0 0 63 21" fill="none" xmlns="http://www.w3.org/2000/svg">
<g clip-path="url(#clip0_519_8620)">
<path d="M26.9676 0.14688L16.5866 7.93612C16.0987 6.02024 14.9712 4.31727 13.3817 3.09561C11.7921 1.87394 9.8311 1.20304 7.80757 1.18867H0.357147V19.093H7.80757C9.84188 19.1198 11.8239 18.4642 13.422 17.236C15.0201 16.0077 16.1373 14.2813 16.5866 12.3456L26.9676 20.1348L37.3485 12.3456V19.093H49.0581V15.4588H41.3345V1.17655H37.0754V7.92398L27.2284 15.7132L25.105 13.8961L29.8981 10.262L34.9519 6.37341L32.0215 4.03543L22.1745 11.5581L20.0511 9.74105L29.8981 2.47274L26.9676 0.134766V0.14688ZM4.34313 4.81072H7.53442C8.19479 4.81197 8.84713 4.95247 9.4467 5.22259C10.0557 5.49584 10.6041 5.88268 11.061 6.36129C11.5417 6.86506 11.9209 7.45277 12.1785 8.09355C12.708 9.45548 12.708 10.9594 12.1785 12.3213C11.9376 12.9602 11.58 13.5513 11.123 14.0657C10.6789 14.5714 10.1338 14.9836 9.52117 15.2771C8.89011 15.5743 8.19796 15.7276 7.49715 15.7253H4.34313V4.82283V4.81072ZM62.3447 15.4588V19.093H50.6475V1.17655H54.9067V15.4588H62.3571H62.3447Z" fill="#D9EFDE" fill-opacity="0.8"/>
</g>
<defs>
<clipPath id="clip0_519_8620">
<rect width="62" height="20" fill="white" transform="translate(0.357147 0.134766)"/>
</clipPath>
</defs>
</svg>
