<svg width="88" height="18" viewBox="0 0 88 18" fill="none" xmlns="http://www.w3.org/2000/svg">
<g clip-path="url(#clip0_519_8624)">
<path d="M58.2131 15.3178C59.3663 15.343 60.4822 14.9004 61.3161 14.0872L62.8557 15.7787C61.8384 16.845 60.4323 17.6347 58.2406 17.6347C54.4857 17.6347 52.0622 15.0933 52.0622 11.654C52.0471 10.8832 52.1811 10.1169 52.4565 9.39895C52.7319 8.68102 53.1433 8.02556 53.6672 7.47006C54.1911 6.91457 54.8171 6.46996 55.5096 6.16165C56.202 5.85335 56.9472 5.68741 57.7025 5.67334H57.9107C61.6381 5.67334 63.7513 8.56747 63.5667 12.584H54.7449C55.0591 14.2515 56.206 15.3138 58.2131 15.3138V15.3178ZM60.8997 10.6559C60.664 9.1006 59.7528 7.95417 57.9264 7.95417C57.1592 7.90843 56.4036 8.16211 55.8128 8.66379C55.2221 9.16547 54.8403 9.87762 54.7449 10.6559H60.8997Z" fill="#D9EFDE" fill-opacity="0.8"/>
<path d="M0.357147 15.1937L7.1404 8.16278H0.518186V5.9541H10.2826V8.20687L3.49936 15.2378H10.3729V17.4424H0.357147V15.1937Z" fill="#D9EFDE" fill-opacity="0.8"/>
<path d="M17.989 15.3178C19.1421 15.343 20.258 14.9004 21.0919 14.0872L22.6316 15.7787C21.6143 16.845 20.2082 17.6347 18.0165 17.6347C14.2615 17.6347 11.8381 15.0933 11.8381 11.654C11.823 10.8838 11.9567 10.1182 12.2316 9.40077C12.5065 8.68335 12.9172 8.02824 13.4403 7.47286C13.9633 6.91747 14.5885 6.47269 15.28 6.16392C15.9715 5.85516 16.7158 5.68846 17.4705 5.67334H17.6787C21.4061 5.67334 23.5193 8.56747 23.3347 12.584H14.5208C14.835 14.2515 15.9819 15.3138 17.989 15.3138V15.3178ZM20.6756 10.6559C20.4399 9.1006 19.5287 7.95417 17.7022 7.95417C16.935 7.90843 16.1794 8.16211 15.5887 8.66379C14.9979 9.16547 14.6161 9.87762 14.5208 10.6559H20.6756Z" fill="#D9EFDE" fill-opacity="0.8"/>
<path d="M37.9734 11.6661C37.9734 7.99034 40.6639 5.69348 43.6254 5.69348C44.336 5.6841 45.04 5.83354 45.688 6.1313C46.336 6.42907 46.9123 6.86794 47.3764 7.41713V0.634766H49.7724V17.4103H47.3764V15.8069C46.921 16.3791 46.3453 16.8394 45.6919 17.1538C45.0385 17.4681 44.3242 17.6284 43.6018 17.6227C42.8565 17.617 42.1196 17.4614 41.4331 17.165C40.7467 16.8686 40.1242 16.4371 39.6012 15.8951C39.0782 15.3531 38.6649 14.7113 38.3849 14.0064C38.1049 13.3014 37.9637 12.547 37.9694 11.7864C37.9694 11.7383 37.9694 11.6942 37.9694 11.6501L37.9734 11.6661ZM47.51 11.626C47.4949 10.6531 47.1038 9.7257 46.4217 9.04585C45.7396 8.36599 44.8218 7.9888 43.8684 7.99647C42.915 8.00414 42.0032 8.39604 41.3317 9.08678C40.6601 9.77753 40.2833 10.7111 40.2833 11.6842C40.2833 12.6572 40.6601 13.5908 41.3317 14.2815C42.0032 14.9723 42.915 15.3642 43.8684 15.3719C44.8218 15.3795 45.7396 15.0023 46.4217 14.3225C47.1038 13.6426 47.4949 12.7152 47.51 11.7423V11.626Z" fill="#D9EFDE" fill-opacity="0.8"/>
<path d="M65.1183 14.9732L67.2864 13.8227C67.574 14.3442 67.9955 14.7758 68.5056 15.0711C69.0157 15.3663 69.595 15.514 70.1811 15.4983C71.5362 15.4983 72.2393 14.7888 72.2393 13.9831C72.2393 13.0651 70.9274 12.8567 69.4899 12.5601C67.5692 12.1592 65.5621 11.5018 65.5621 9.13681C65.5621 7.32097 67.255 5.64542 69.9258 5.66546C72.0272 5.66546 73.5865 6.51526 74.4703 7.89418L72.4867 9.02057C72.2085 8.60024 71.8299 8.25928 71.3866 8.02992C70.9433 7.80056 70.45 7.69038 69.9533 7.70979C68.665 7.70979 68.0091 8.35516 68.0091 9.08871C68.0091 9.91446 69.0499 10.147 70.676 10.5117C72.5299 10.9126 74.6313 11.5459 74.6313 13.935C74.6313 15.5384 73.2762 17.6589 70.0633 17.6348C67.7066 17.6348 66.0609 16.6688 65.1143 14.9692" fill="#D9EFDE" fill-opacity="0.8"/>
<path d="M81.1433 12.3075L79.2422 14.42V17.4103H76.8463V0.634766H79.2422V11.618L84.3287 5.91795H87.247L82.8362 10.8364L87.357 17.4103H84.6469L81.1433 12.3075Z" fill="#D9EFDE" fill-opacity="0.8"/>
<path d="M30.7305 5.68956C27.8829 5.68956 25.4987 7.57354 25.4987 10.7002V17.4104H27.9418V10.9968C27.9418 9.1128 29.0023 7.98642 30.813 7.98642C32.6237 7.98642 33.5271 9.1128 33.5271 10.9968V17.4104H35.9584V10.6962C35.9584 7.56954 33.5742 5.68555 30.7266 5.68555" fill="#D9EFDE" fill-opacity="0.8"/>
</g>
<defs>
<clipPath id="clip0_519_8624">
<rect width="87" height="17" fill="white" transform="translate(0.357147 0.634766)"/>
</clipPath>
</defs>
</svg>
