<svg width="55" height="21" viewBox="0 0 55 21" fill="none" xmlns="http://www.w3.org/2000/svg">
<path d="M5.83233 5.24009H0.357178L0.357178 0.134766H17.3734V5.24009H11.8971V20.1348H5.83233V5.24009ZM18.315 0.134766H34.8604V5.24009H24.3803V7.70275H34.8604V12.5068H24.3803V15.0294H34.8604V20.1348H18.315V0.134766ZM35.8607 0.134766H45.8114C52.3475 0.134766 54.6429 5.05993 54.6429 10.1051C54.6429 16.2311 51.4628 20.1348 44.6335 20.1348H35.8607V0.134766ZM41.926 15.0294H44.28C48.0482 15.0294 48.5793 11.9069 48.5793 10.0452C48.5793 8.78338 48.1671 5.3002 43.8092 5.3002H41.8656L41.926 15.0294Z" fill="#D9EFDE" fill-opacity="0.8"/>
</svg>
